<svg
  width="100"
  height="100"
  viewBox="500 375 1000 1000"
  xmlns="http://www.w3.org/2000/svg"
>
  <path
    d="M 948.839844 1255.011719 C 810.289062 1255.011719 679.421875 1187.621094 598.769531 1074.75 C 547.371094 1002.839844 519.738281 917.988281 518.859375 829.410156 C 518.851562 827.941406 518.839844 826.480469 518.839844 825.011719 C 518.839844 823.539062 518.851562 822.078125 518.859375 820.640625 C 519.738281 732.03125 547.371094 647.179688 598.769531 575.269531 C 679.421875 462.398438 810.289062 395.011719 948.839844 395.011719 C 959.539062 395.011719 970.238281 395.410156 980.890625 396.191406 C 860.929688 434.460938 761.109375 522.210938 708.101562 638.378906 C 681.28125 697.128906 667.679688 759.921875 667.679688 825.011719 C 667.679688 890.101562 681.28125 952.890625 708.101562 1011.640625 C 761.109375 1127.808594 860.929688 1215.558594 980.890625 1253.828125 C 970.238281 1254.609375 959.539062 1255.011719 948.839844 1255.011719 Z M 1354.320312 998.828125 L 1344.789062 993.328125 L 1340.21875 1003.339844 C 1282.890625 1128.988281 1168.238281 1219.851562 1033.261719 1246.71875 C 898.28125 1219.851562 783.628906 1128.988281 726.300781 1003.339844 C 700.671875 947.210938 687.679688 887.210938 687.679688 825.011719 C 687.679688 762.808594 700.671875 702.808594 726.300781 646.679688 C 783.628906 521.03125 898.28125 430.171875 1033.261719 403.300781 C 1168.238281 430.171875 1282.890625 521.03125 1340.21875 646.679688 L 1344.789062 656.691406 L 1354.320312 651.191406 L 1358.921875 648.539062 L 1492.289062 571.539062 L 1492.488281 571.421875 L 1501.160156 566.410156 L 1496.148438 557.75 C 1450 477.988281 1383.640625 411.089844 1304.238281 364.289062 C 1222.441406 316.070312 1128.730469 290.589844 1033.261719 290.589844 L 1033.261719 310.589844 C 1212.988281 310.589844 1380.839844 405.578125 1473.738281 559.148438 L 1472.609375 559.808594 L 1436.78125 580.488281 L 1353.730469 628.429688 C 1298.71875 515.269531 1198.730469 430.449219 1079.53125 394.289062 L 1079.519531 394.289062 C 1065.011719 389.890625 1050.210938 386.199219 1035.171875 383.28125 C 1006.921875 377.789062 977.878906 375.011719 948.839844 375.011719 C 876 375.011719 803.648438 392.820312 739.609375 426.511719 C 677.628906 459.121094 623.300781 506.539062 582.488281 563.648438 C 528.699219 638.910156 499.78125 727.710938 498.859375 820.46875 C 498.851562 821.980469 498.839844 823.5 498.839844 825.011719 C 498.839844 826.519531 498.851562 828.039062 498.859375 829.578125 C 499.78125 922.308594 528.699219 1011.109375 582.488281 1086.371094 C 623.300781 1143.480469 677.628906 1190.898438 739.609375 1223.511719 C 803.648438 1257.199219 876 1275.011719 948.839844 1275.011719 C 977.878906 1275.011719 1006.921875 1272.230469 1035.171875 1266.738281 C 1050.210938 1263.808594 1065.019531 1260.128906 1079.53125 1255.730469 C 1198.730469 1219.570312 1298.71875 1134.75 1353.730469 1021.589844 L 1473.738281 1090.871094 C 1380.839844 1244.441406 1212.988281 1339.429688 1033.261719 1339.429688 L 1033.261719 1359.429688 C 1128.730469 1359.429688 1222.441406 1333.949219 1304.238281 1285.730469 C 1383.640625 1238.929688 1450 1172.03125 1496.148438 1092.269531 L 1501.160156 1083.609375 L 1492.488281 1078.601562 L 1354.320312 998.828125"
    stroke="currentColor"
    fill="none"
    stroke-width="20"
  />
</svg>
